<svg width="24" height="24" viewBox="0 0 24 24" fill="none" xmlns="http://www.w3.org/2000/svg">
<path fill-rule="evenodd" clip-rule="evenodd" d="M0 0.8C0 0.587827 0.0842855 0.384344 0.234315 0.234315C0.384344 0.0842854 0.587827 0 0.8 0H3.2C3.37845 4.92984e-05 3.55176 0.0597611 3.69237 0.16964C3.83298 0.279518 3.93281 0.433254 3.976 0.6064L4.624 3.2H23.2C23.3183 3.20007 23.4351 3.22638 23.5421 3.27704C23.649 3.3277 23.7433 3.40144 23.8183 3.49296C23.8933 3.58447 23.9471 3.69148 23.9757 3.80627C24.0044 3.92106 24.0072 4.04078 23.984 4.1568L22.384 12.1568C22.349 12.3313 22.2568 12.4891 22.1221 12.6053C21.9873 12.7215 21.8177 12.7894 21.64 12.7984L6.6048 13.5536L7.064 16H20.8C21.0122 16 21.2157 16.0843 21.3657 16.2343C21.5157 16.3843 21.6 16.5878 21.6 16.8C21.6 17.0122 21.5157 17.2157 21.3657 17.3657C21.2157 17.5157 21.0122 17.6 20.8 17.6H6.4C6.21349 17.5998 6.0329 17.5345 5.88946 17.4153C5.74601 17.2961 5.64872 17.1305 5.6144 16.9472L3.216 4.1712L2.576 1.6H0.8C0.587827 1.6 0.384344 1.51571 0.234315 1.36569C0.0842855 1.21566 0 1.01217 0 0.8ZM4.9632 4.8L6.3072 11.9664L20.9376 11.232L22.224 4.8H4.9632ZM8 17.6C7.15131 17.6 6.33737 17.9371 5.73726 18.5373C5.13714 19.1374 4.8 19.9513 4.8 20.8C4.8 21.6487 5.13714 22.4626 5.73726 23.0627C6.33737 23.6629 7.15131 24 8 24C8.84869 24 9.66263 23.6629 10.2627 23.0627C10.8629 22.4626 11.2 21.6487 11.2 20.8C11.2 19.9513 10.8629 19.1374 10.2627 18.5373C9.66263 17.9371 8.84869 17.6 8 17.6ZM19.2 17.6C18.3513 17.6 17.5374 17.9371 16.9373 18.5373C16.3371 19.1374 16 19.9513 16 20.8C16 21.6487 16.3371 22.4626 16.9373 23.0627C17.5374 23.6629 18.3513 24 19.2 24C20.0487 24 20.8626 23.6629 21.4627 23.0627C22.0629 22.4626 22.4 21.6487 22.4 20.8C22.4 19.9513 22.0629 19.1374 21.4627 18.5373C20.8626 17.9371 20.0487 17.6 19.2 17.6ZM8 19.2C7.57565 19.2 7.16869 19.3686 6.86863 19.6686C6.56857 19.9687 6.4 20.3757 6.4 20.8C6.4 21.2243 6.56857 21.6313 6.86863 21.9314C7.16869 22.2314 7.57565 22.4 8 22.4C8.42435 22.4 8.83131 22.2314 9.13137 21.9314C9.43143 21.6313 9.6 21.2243 9.6 20.8C9.6 20.3757 9.43143 19.9687 9.13137 19.6686C8.83131 19.3686 8.42435 19.2 8 19.2ZM19.2 19.2C18.7757 19.2 18.3687 19.3686 18.0686 19.6686C17.7686 19.9687 17.6 20.3757 17.6 20.8C17.6 21.2243 17.7686 21.6313 18.0686 21.9314C18.3687 22.2314 18.7757 22.4 19.2 22.4C19.6243 22.4 20.0313 22.2314 20.3314 21.9314C20.6314 21.6313 20.8 21.2243 20.8 20.8C20.8 20.3757 20.6314 19.9687 20.3314 19.6686C20.0313 19.3686 19.6243 19.2 19.2 19.2Z" fill="#1E1E1E"/>
</svg>
