<svg width="11" height="15" viewBox="0 0 11 15" fill="none" xmlns="http://www.w3.org/2000/svg">
<path d="M3.90234 6.57422C4.27734 6.92578 4.72266 7.10156 5.23828 7.10156C5.75391 7.10156 6.1875 6.92578 6.53906 6.57422C6.91406 6.19922 7.10156 5.75391 7.10156 5.23828C7.10156 4.72266 6.91406 4.28906 6.53906 3.9375C6.1875 3.5625 5.75391 3.375 5.23828 3.375C4.72266 3.375 4.27734 3.5625 3.90234 3.9375C3.55078 4.28906 3.375 4.72266 3.375 5.23828C3.375 5.75391 3.55078 6.19922 3.90234 6.57422ZM1.51172 1.54688C2.54297 0.515625 3.78516 0 5.23828 0C6.69141 0 7.92188 0.515625 8.92969 1.54688C9.96094 2.55469 10.4766 3.78516 10.4766 5.23828C10.4766 5.96484 10.2891 6.79688 9.91406 7.73438C9.5625 8.67188 9.12891 9.55078 8.61328 10.3711C8.09766 11.1914 7.58203 11.9648 7.06641 12.6914C6.57422 13.3945 6.15234 13.957 5.80078 14.3789L5.23828 14.9766C5.09766 14.8125 4.91016 14.6016 4.67578 14.3438C4.44141 14.0625 4.01953 13.5234 3.41016 12.7266C2.80078 11.9062 2.26172 11.1211 1.79297 10.3711C1.34766 9.59766 0.9375 8.73047 0.5625 7.76953C0.1875 6.80859 0 5.96484 0 5.23828C0 3.78516 0.503906 2.55469 1.51172 1.54688Z" fill="#1E1E1E"/>
</svg>
