<svg width="22" height="22" viewBox="0 0 22 22" fill="none" xmlns="http://www.w3.org/2000/svg">
<path fill-rule="evenodd" clip-rule="evenodd" d="M20.1667 22C20.1667 22 22 22 22 20.1667C22 18.3333 20.1667 12.8333 11 12.8333C1.83333 12.8333 0 18.3333 0 20.1667C0 22 1.83333 22 1.83333 22H20.1667ZM1.8425 20.2693V20.2657V20.2693ZM1.87367 20.1667H20.1263C20.1349 20.1657 20.1435 20.1644 20.152 20.163L20.1667 20.1593C20.1648 19.7083 19.8843 18.3517 18.6413 17.1087C17.446 15.9133 15.1965 14.6667 11 14.6667C6.80167 14.6667 4.554 15.9133 3.35867 17.1087C2.11567 18.3517 1.837 19.7083 1.83333 20.1593C1.84675 20.1619 1.8602 20.1644 1.87367 20.1667ZM20.1593 20.2693V20.2657V20.2693ZM11 9.16667C11.9725 9.16667 12.9051 8.78036 13.5927 8.09272C14.2804 7.40509 14.6667 6.47246 14.6667 5.5C14.6667 4.52754 14.2804 3.59491 13.5927 2.90727C12.9051 2.21964 11.9725 1.83333 11 1.83333C10.0275 1.83333 9.09491 2.21964 8.40728 2.90727C7.71964 3.59491 7.33333 4.52754 7.33333 5.5C7.33333 6.47246 7.71964 7.40509 8.40728 8.09272C9.09491 8.78036 10.0275 9.16667 11 9.16667ZM16.5 5.5C16.5 6.95869 15.9205 8.35764 14.8891 9.38909C13.8576 10.4205 12.4587 11 11 11C9.54131 11 8.14236 10.4205 7.11091 9.38909C6.07946 8.35764 5.5 6.95869 5.5 5.5C5.5 4.04131 6.07946 2.64236 7.11091 1.61091C8.14236 0.579463 9.54131 0 11 0C12.4587 0 13.8576 0.579463 14.8891 1.61091C15.9205 2.64236 16.5 4.04131 16.5 5.5Z" fill="#1E1E1E"/>
</svg>
