<svg width="14" height="14" viewBox="0 0 14 14" fill="none" xmlns="http://www.w3.org/2000/svg">
<path d="M2.49609 7.27734C3.15234 7.93359 3.94922 8.26172 4.88672 8.26172C5.82422 8.26172 6.62109 7.93359 7.27734 7.27734C7.93359 6.62109 8.26172 5.82422 8.26172 4.88672C8.26172 3.94922 7.93359 3.15234 7.27734 2.49609C6.62109 1.83984 5.82422 1.51172 4.88672 1.51172C3.94922 1.51172 3.15234 1.83984 2.49609 2.49609C1.83984 3.15234 1.51172 3.94922 1.51172 4.88672C1.51172 5.82422 1.83984 6.62109 2.49609 7.27734ZM9.38672 8.26172L13.1133 11.9883L11.9883 13.1133L8.26172 9.38672V8.78906L8.05078 8.57812C7.16016 9.35156 6.10547 9.73828 4.88672 9.73828C3.52734 9.73828 2.36719 9.26953 1.40625 8.33203C0.46875 7.39453 0 6.24609 0 4.88672C0 3.52734 0.46875 2.37891 1.40625 1.44141C2.36719 0.480469 3.52734 0 4.88672 0C6.24609 0 7.39453 0.480469 8.33203 1.44141C9.26953 2.37891 9.73828 3.52734 9.73828 4.88672C9.73828 5.37891 9.62109 5.94141 9.38672 6.57422C9.15234 7.18359 8.88281 7.67578 8.57812 8.05078L8.78906 8.26172H9.38672Z" fill="#272727"/>
</svg>
