<svg width="40" height="40" viewBox="0 0 40 40" fill="none" xmlns="http://www.w3.org/2000/svg">
<path d="M0 19.752C0 21.8029 0.31099 23.7781 0.890943 25.644C0.9834 25.955 1.09267 26.2576 1.20193 26.5602C1.43728 27.1906 1.69784 27.8041 1.98361 28.4009C5.19437 34.9821 11.9437 39.5125 19.7604 39.5125V38.8065C16.4909 38.8065 13.8348 36.142 13.8348 32.8724C13.8348 29.6028 16.4825 26.9468 19.7604 26.9384V25.6356C18.9704 25.6356 18.3232 24.9968 18.3232 24.1984C18.3232 23.3999 18.962 22.7611 19.7604 22.7611V21.5255C18.7771 21.5255 17.9786 20.727 17.9786 19.7436C17.9786 18.7602 18.7771 17.9618 19.7604 17.9618V16.7262C18.9704 16.7262 18.3232 16.0874 18.3232 15.2889C18.3232 14.4904 18.962 13.8516 19.7604 13.8516V12.5404C16.4909 12.5404 13.8348 9.87602 13.8348 6.60643C13.8348 3.33683 16.4825 0.680815 19.7604 0.67241H20.3152L20.332 0C9.42215 0.00840512 0 8.83379 0 19.752ZM17.4574 21.9374C17.4574 22.7275 16.8187 23.3747 16.0202 23.3747C15.2217 23.3747 14.5829 22.7359 14.5829 21.9374C14.5829 21.1389 15.2217 20.5001 16.0202 20.5001C16.8187 20.5001 17.4574 21.1389 17.4574 21.9374ZM14.6585 25.644C14.6753 25.8205 14.6838 26.0055 14.6838 26.1904C14.6838 29.4684 12.0277 32.1244 8.74973 32.1244C6.26182 32.1244 4.13532 30.5947 3.25278 28.4177C3.06787 27.9554 2.93339 27.4679 2.86615 26.9636C2.83253 26.7115 2.81572 26.4509 2.81572 26.1904C2.81572 26.0055 2.81572 25.8289 2.84093 25.644C3.1183 22.6182 5.65665 20.2563 8.74973 20.2563C11.8428 20.2563 14.3812 22.6266 14.6585 25.644ZM17.4574 17.5751C17.4574 18.3652 16.8187 19.0124 16.0202 19.0124C15.2217 19.0124 14.5829 18.3736 14.5829 17.5751C14.5829 16.7766 15.2217 16.1378 16.0202 16.1378C16.8187 16.1378 17.4574 16.7766 17.4574 17.5751ZM14.6753 13.3221C14.6753 16.6001 12.0193 19.2561 8.74133 19.2561C5.46333 19.2561 2.80731 16.6001 2.80731 13.3221C2.80731 10.0441 5.46333 7.3881 8.74133 7.3881C12.0193 7.3881 14.6753 10.0441 14.6753 13.3221Z" fill="#6F99FF"/>
<path d="M20.3405 0.00830078C31.1999 0.00830078 40 8.80847 40 19.6679C40 30.5273 31.1999 39.3275 20.3405 39.3275V0.00830078Z" fill="url(#paint0_linear_69_1018)"/>
<defs>
<linearGradient id="paint0_linear_69_1018" x1="20.3405" y1="19.6679" x2="40" y2="19.6679" gradientUnits="userSpaceOnUse">
<stop stop-color="white"/>
<stop offset="1" stop-color="#F5D010"/>
</linearGradient>
</defs>
</svg>
